<?xml version="1.0" encoding="UTF-8"?>
<svg width="526px" height="633px" viewBox="0 0 526 633" version="1.1" xmlns="http://www.w3.org/2000/svg" xmlns:xlink="http://www.w3.org/1999/xlink">
    <!-- Generator: Sketch 43.2 (39069) - http://www.bohemiancoding.com/sketch -->
    <title>mask</title>
    <desc>Created with Sketch.</desc>
    <defs>
        <path d="M0,0 L526,0 L526,633 L0,633 L0,0 Z M265,113 C282.673112,113 297,98.673112 297,81 C297,63.326888 282.673112,49 265,49 C247.326888,49 233,63.326888 233,81 C233,98.673112 247.326888,113 265,113 Z M265,107 C250.640597,107 239,95.3594035 239,81 C239,66.6405965 250.640597,55 265,55 C279.359403,55 291,66.6405965 291,81 C291,95.3594035 279.359403,107 265,107 Z M149,207 C166.673112,207 181,192.673112 181,175 C181,157.326888 166.673112,143 149,143 C131.326888,143 117,157.326888 117,175 C117,192.673112 131.326888,207 149,207 Z M149,201 C134.640597,201 123,189.359403 123,175 C123,160.640597 134.640597,149 149,149 C163.359403,149 175,160.640597 175,175 C175,189.359403 163.359403,201 149,201 Z M420,279 C437.673112,279 452,264.673112 452,247 C452,229.326888 437.673112,215 420,215 C402.326888,215 388,229.326888 388,247 C388,264.673112 402.326888,279 420,279 Z M420,273 C405.640597,273 394,261.359403 394,247 C394,232.640597 405.640597,221 420,221 C434.359403,221 446,232.640597 446,247 C446,261.359403 434.359403,273 420,273 Z M265,337 C282.673112,337 297,322.673112 297,305 C297,287.326888 282.673112,273 265,273 C247.326888,273 233,287.326888 233,305 C233,322.673112 247.326888,337 265,337 Z M265,331 C250.640597,331 239,319.359403 239,305 C239,290.640597 250.640597,279 265,279 C279.359403,279 291,290.640597 291,305 C291,319.359403 279.359403,331 265,331 Z M323,207 C340.673112,207 355,192.673112 355,175 C355,157.326888 340.673112,143 323,143 C305.326888,143 291,157.326888 291,175 C291,192.673112 305.326888,207 323,207 Z M323,201 C308.640597,201 297,189.359403 297,175 C297,160.640597 308.640597,149 323,149 C337.359403,149 349,160.640597 349,175 C349,189.359403 337.359403,201 323,201 Z M207,436 C224.673112,436 239,421.673112 239,404 C239,386.326888 224.673112,372 207,372 C189.326888,372 175,386.326888 175,404 C175,421.673112 189.326888,436 207,436 Z M207,430 C192.640597,430 181,418.359403 181,404 C181,389.640597 192.640597,378 207,378 C221.359403,378 233,389.640597 233,404 C233,418.359403 221.359403,430 207,430 Z M107,337 C124.673112,337 139,322.673112 139,305 C139,287.326888 124.673112,273 107,273 C89.326888,273 75,287.326888 75,305 C75,322.673112 89.326888,337 107,337 Z M107,331 C92.6405965,331 81,319.359403 81,305 C81,290.640597 92.6405965,279 107,279 C121.359403,279 133,290.640597 133,305 C133,319.359403 121.359403,331 107,331 Z M265,585 C282.673112,585 297,570.673112 297,553 C297,535.326888 282.673112,521 265,521 C247.326888,521 233,535.326888 233,553 C233,570.673112 247.326888,585 265,585 Z M265,579 C250.640597,579 239,567.359403 239,553 C239,538.640597 250.640597,527 265,527 C279.359403,527 291,538.640597 291,553 C291,567.359403 279.359403,579 265,579 Z M362,494 C379.673112,494 394,479.673112 394,462 C394,444.326888 379.673112,430 362,430 C344.326888,430 330,444.326888 330,462 C330,479.673112 344.326888,494 362,494 Z M362,488 C347.640597,488 336,476.359403 336,462 C336,447.640597 347.640597,436 362,436 C376.359403,436 388,447.640597 388,462 C388,476.359403 376.359403,488 362,488 Z" id="path-1"></path>
        <filter x="-0.9%" y="-0.7%" width="101.7%" height="101.4%" filterUnits="objectBoundingBox" id="filter-2">
            <feOffset dx="0" dy="0" in="SourceAlpha" result="shadowOffsetOuter1"></feOffset>
            <feGaussianBlur stdDeviation="1.5" in="shadowOffsetOuter1" result="shadowBlurOuter1"></feGaussianBlur>
            <feColorMatrix values="0 0 0 0 0   0 0 0 0 0   0 0 0 0 0  0 0 0 1 0" type="matrix" in="shadowBlurOuter1"></feColorMatrix>
        </filter>
    </defs>
    <g id="Page-1" stroke="none" stroke-width="1" fill="none" fill-rule="evenodd">
        <g id="mask">
            <g id="Combined-Shape">
                <use fill="black" fill-opacity="1" filter="url(#filter-2)" xlink:href="#path-1"></use>
                <use fill="#000000" fill-rule="evenodd" xlink:href="#path-1"></use>
            </g>
        </g>
    </g>
</svg>